<?xml version="1.0" encoding="utf-8"?>
<!-- Generator: Adobe Illustrator 20.1.0, SVG Export Plug-In . SVG Version: 6.00 Build 0)  -->
<svg version="1.1" id="Layer_1" xmlns="http://www.w3.org/2000/svg" xmlns:xlink="http://www.w3.org/1999/xlink" x="0px" y="0px"
	 viewBox="0 0 960 105.7" style="enable-background:new 0 0 960 105.7;" xml:space="preserve">
<style type="text/css">
	.st0{clip-path:url(#SVGID_2_);fill:#5C6670;}
	.st1{clip-path:url(#SVGID_2_);}
	.st2{clip-path:url(#SVGID_4_);fill:#5C6670;}
	.st3{clip-path:url(#SVGID_4_);fill:#E2231A;}
	.st4{clip-path:url(#SVGID_4_);fill:#FFB700;}
	.st5{clip-path:url(#SVGID_4_);fill:#FF6B00;}
	.st6{clip-path:url(#SVGID_4_);fill:#3FAE2A;}
	.st7{clip-path:url(#SVGID_4_);fill:#2F7DE1;}
</style>
<g id="logo_horiz_color">
	<g>
		<defs>
			<rect id="SVGID_1_" x="2.2" y="3" width="955.6" height="99.6"/>
		</defs>
		<clipPath id="SVGID_2_">
			<use xlink:href="#SVGID_1_"  style="overflow:visible;"/>
		</clipPath>
		<polygon class="st0" points="194.4,28.1 194.4,97.5 175.3,97.5 175.3,28.1 148.8,28.1 148.8,10.4 220.9,10.4 220.9,28.1 		"/>
		<g class="st1">
			<defs>
				<rect id="SVGID_3_" x="2.2" y="3" width="955.6" height="99.6"/>
			</defs>
			<clipPath id="SVGID_4_">
				<use xlink:href="#SVGID_3_"  style="overflow:visible;"/>
			</clipPath>
			<path class="st2" d="M275.2,97.5V60.3c0-9-4.2-13.6-11.4-13.6s-11.8,4.6-11.8,13.6v37.2H233V6.7h18.9v33.6
				c4.4-5.6,10-10.7,19.5-10.7c14.3,0,22.6,9.5,22.6,24.8v43.2H275.2z"/>
			<path class="st2" d="M310.3,6.7h19.9v16.8h-19.9V6.7z M310.8,30.8h18.9v66.7h-18.9V30.8z"/>
			<path class="st2" d="M390.9,97.5V60.3c0-9-4.2-13.6-11.4-13.6c-7.2,0-11.8,4.6-11.8,13.6v37.2h-18.9V30.8h18.9v9.5
				c4.4-5.6,10-10.7,19.5-10.7c14.3,0,22.6,9.5,22.6,24.8v43.2H390.9z"/>
			<polygon class="st2" points="468,97.5 450.5,70.3 443.9,77.2 443.9,97.5 425,97.5 425,6.7 443.9,6.7 443.9,55.1 466.1,30.8 
				488.7,30.8 463.3,57.1 489.6,97.5 			"/>
			<path class="st3" d="M545.2,99c-25.6,0-44.7-19.8-44.7-44.8V54c0-24.8,18.7-45,45.4-45c16.4,0,26.3,5.5,34.3,13.4l-12.2,14.1
				c-6.7-6.1-13.6-9.8-22.3-9.8c-14.7,0-25.3,12.2-25.3,27.1V54c0,14.9,10.3,27.4,25.3,27.4c10,0,16.1-4,22.9-10.2L581,83.5
				C572,93,562,99,545.2,99"/>
			<polygon class="st4" points="593.8,97.5 593.8,10.4 659.5,10.4 659.5,27.5 612.8,27.5 612.8,45.1 653.9,45.1 653.9,62.2 
				612.8,62.2 612.8,80.5 660.1,80.5 660.1,97.5 			"/>
			<path class="st5" d="M730.7,97.5L712,69.7h-15.1v27.9h-19.2V10.4h39.8c20.5,0,32.8,10.8,32.8,28.7v0.2c0,14.1-7.6,22.9-18.7,27
				l21.3,31.1H730.7z M731,40.2c0-8.2-5.7-12.4-15.1-12.4h-19v25h19.4c9.3,0,14.7-5,14.7-12.3V40.2z"/>
			<path class="st6" d="M804.8,99c-25.6,0-44.7-19.8-44.7-44.8V54c0-24.8,18.7-45,45.4-45c16.4,0,26.3,5.5,34.3,13.4l-12.2,14.1
				c-6.7-6.1-13.6-9.8-22.3-9.8c-14.7,0-25.3,12.2-25.3,27.1V54c0,14.9,10.3,27.4,25.3,27.4c10,0,16.1-4,22.9-10.2l12.2,12.3
				C831.6,93,821.6,99,804.8,99"/>
			<path class="st7" d="M917,97.5L909,78h-36.8l-8,19.5h-19.5L882,9.8h17.7L937,97.5H917z M890.6,32.8L879,61.1h23.1L890.6,32.8z"/>
			<path class="st2" d="M931.7,26.8h-3.3V12.8h-5.3v-3H937v3h-5.3V26.8z M949.4,22.9h-0.3l-5.3-8.2v12.1h-3.2v-17h3.5l5.1,8.1
				l5.1-8.1h3.4v17h-3.1V14.7L949.4,22.9z"/>
			<path class="st4" d="M53.7,3c-9.4,0-17.1,7.6-17.1,17c0,9.4,7.6,17.1,17.1,17.1c9.4,0,17-7.6,17-17.1C70.8,10.7,63.1,3,53.7,3"/>
			<path class="st6" d="M75,68.6c-9.4,0-17,7.6-17,17c0,9.4,7.6,17.1,17,17.1s17-7.6,17-17.1C92.1,76.2,84.4,68.6,75,68.6"/>
			<path class="st3" d="M19.3,28.1c-9.4,0-17,7.6-17,17c0,9.4,7.6,17.1,17,17.1s17-7.6,17-17.1C36.3,35.7,28.7,28.1,19.3,28.1"/>
			<path class="st5" d="M88.2,28.1c-9.4,0-17,7.6-17,17c0,9.4,7.6,17.1,17,17.1s17-7.6,17-17.1C105.2,35.7,97.6,28.1,88.2,28.1"/>
			<path class="st7" d="M32.4,68.6c-9.4,0-17,7.6-17,17c0,9.4,7.6,17.1,17,17.1s17-7.6,17-17.1C49.4,76.2,41.8,68.6,32.4,68.6"/>
		</g>
	</g>
</g>
</svg>
