<svg id="pentagon_grid" data-name="pentagon grid" xmlns="http://www.w3.org/2000/svg" viewBox="0 0 178.78 152.15"><defs><style>.cls-1{fill:#5b666f;}.cls-2{fill:#e1221c;}.cls-3{fill:#ffb600;}.cls-4{fill:#ff6b00;}.cls-5{fill:#3dad2c;}.cls-6{fill:#2a7de3;}.cls-7{fill:#fff;}</style></defs><title>ThinkCERCA-logo-stacked</title><path class="cls-1" d="M10.09,136.48v15.34H5.86V136.48H0v-3.9H15.95v3.9H10.09Z"/><path class="cls-1" d="M27.94,151.82V143.6c0-2-.93-3-2.53-3s-2.61,1-2.61,3v8.22H18.62V131.75H22.8v7.42a5.21,5.21,0,0,1,4.32-2.36c3.16,0,5,2.09,5,5.47v9.54H27.94Z"/><path class="cls-1" d="M35.69,135.46v-3.71h4.4v3.71h-4.4Zm0.11,16.36V137.09H40v14.74H35.8Z"/><path class="cls-1" d="M53.51,151.82V143.6c0-2-.93-3-2.53-3s-2.61,1-2.61,3v8.22H44.19V137.09h4.18v2.09a5.22,5.22,0,0,1,4.32-2.36c3.16,0,5,2.09,5,5.47v9.54H53.51Z"/><path class="cls-1" d="M70.54,151.82l-3.85-6-1.46,1.54v4.48H61V131.75h4.18v10.7l4.89-5.36h5l-5.61,5.8,5.8,8.94H70.54Z"/><path class="cls-2" d="M87.61,152.15a9.72,9.72,0,0,1-9.87-9.9V142.2a9.78,9.78,0,0,1,10-10,9.93,9.93,0,0,1,7.59,3l-2.69,3.11a7.1,7.1,0,0,0-4.92-2.17,5.7,5.7,0,0,0-5.58,6v0.06c0,3.3,2.28,6,5.58,6A7,7,0,0,0,92.81,146l2.69,2.72A9.84,9.84,0,0,1,87.61,152.15Z"/><path class="cls-3" d="M98.34,151.82V132.58h14.52v3.77H102.55v3.9h9.07V144h-9.07v4H113v3.77H98.34Z"/><path class="cls-4" d="M128.59,151.82l-4.13-6.16h-3.33v6.16H116.9V132.58h8.8c4.54,0,7.26,2.39,7.26,6.35V139a6,6,0,0,1-4.12,6l4.7,6.87h-4.95Zm0.08-12.68c0-1.81-1.26-2.75-3.33-2.75h-4.21v5.53h4.29c2.06,0,3.24-1.1,3.24-2.72v-0.06Z"/><path class="cls-5" d="M145,152.15a9.72,9.72,0,0,1-9.87-9.9V142.2a9.78,9.78,0,0,1,10-10,9.93,9.93,0,0,1,7.59,3L150,138.32a7.1,7.1,0,0,0-4.92-2.17,5.7,5.7,0,0,0-5.58,6v0.06c0,3.3,2.28,6,5.58,6a7,7,0,0,0,5.06-2.25l2.69,2.72A9.84,9.84,0,0,1,145,152.15Z"/><path class="cls-6" d="M169.75,151.82L168,147.51h-8.14l-1.76,4.32h-4.32L162,132.44h3.9l8.25,19.38h-4.43Zm-5.83-14.3-2.56,6.24h5.11Z"/><path class="cls-1" d="M173,136.2H172.3V133.1h-1.16v-0.66h3v0.66H173v3.11Zm3.9-.87h-0.07l-1.16-1.81v2.68H175v-3.77h0.77l1.14,1.79,1.14-1.79h0.75v3.77h-0.7v-2.68Z"/><path class="cls-3" d="M87.11,0a19.25,19.25,0,1,0,19.25,19.25A19.27,19.27,0,0,0,87.11,0Z"/><path class="cls-7" d="M95.77,26.44L90.1,20.76a6.51,6.51,0,1,0-1.49,1.49l5.68,5.67Zm-10.89-5A4.46,4.46,0,1,1,89.34,17,4.45,4.45,0,0,1,84.88,21.48Z"/><path class="cls-5" d="M111.14,74a19.25,19.25,0,1,0,19.25,19.25A19.27,19.27,0,0,0,111.14,74Z"/><path class="cls-7" d="M107.65,85.34h11v8.2l-1.18-1.18h-9.86v-7m-1-2a1,1,0,0,0-1,1v9a1,1,0,0,0,1,1h10l4,4V84.33a1,1,0,0,0-1-1h-13Zm-5,4a1,1,0,0,0-1,1V103.4l4-4h11a1,1,0,0,0,1-1v-2h-13v-9h-2Z"/><path class="cls-2" d="M48.19,28.24A19.25,19.25,0,1,0,67.44,47.49,19.27,19.27,0,0,0,48.19,28.24Z"/><path class="cls-7" d="M56.22,37.45H40.16a2,2,0,0,0-2,2V57.53l4-4H56.22a2,2,0,0,0,2-2v-12A2,2,0,0,0,56.22,37.45Zm0,14.05H42.17l-2,2V39.46H56.22v12Z"/><path class="cls-4" d="M126,28.29a19.25,19.25,0,1,0,19.25,19.25A19.27,19.27,0,0,0,126,28.29Z"/><path class="cls-7" d="M136,50l-2.41-4.62v-1a8.28,8.28,0,0,0-8.27-8,8.59,8.59,0,0,0-1,.06,8.27,8.27,0,0,0-4.73,14.15V58.4h10V55.89h3a1,1,0,0,0,1-1V51.38H135A1,1,0,0,0,136,50Zm-4.42-.61v4.52h-4V56.4h-6V49.69l-0.61-.59a6.25,6.25,0,0,1-1.82-5.54,6.32,6.32,0,0,1,5.39-5.18,6.62,6.62,0,0,1,.8,0,6.23,6.23,0,0,1,6.26,6.06v1.47l1.85,3.51h-1.84Z"/><path class="cls-7" d="M125.27,39.83a4.77,4.77,0,0,0-4.77,4.77c0,0.08,0,.17,0,0.25a2.51,2.51,0,0,0,4.78,1.07h0a1,1,0,0,1,.9-0.57H129a1,1,0,0,0,1-1A4.79,4.79,0,0,0,125.27,39.83Z"/><path class="cls-6" d="M63,74A19.25,19.25,0,1,0,82.27,93.23,19.27,19.27,0,0,0,63,74Z"/><path class="cls-7" d="M59.84,99.25h-2a4,4,0,0,0,5.66,3.66,5.46,5.46,0,0,0,2.74-3.56,4,4,0,0,1,1.72-2.06,9.57,9.57,0,0,0,2.86-3.16,8.31,8.31,0,0,0,1.07-3.91,7,7,0,0,0-14.05,0h2a5,5,0,1,1,10,0,6.29,6.29,0,0,1-.82,3,7.63,7.63,0,0,1-2.33,2.54,5.91,5.91,0,0,0-2.4,3,3.49,3.49,0,0,1-1.72,2.39,1.91,1.91,0,0,1-.76.15A2,2,0,0,1,59.84,99.25Zm2.51-8a2.51,2.51,0,1,0,2.51,2.51A2.51,2.51,0,0,0,62.35,91.22Z"/></svg>